<svg xmlns="http://www.w3.org/2000/svg" width="1800" height="1800"><defs><linearGradient id="a"><stop style="stop-color:#61cff1;stop-opacity:1" offset="0"/><stop style="stop-color:#61cff1;stop-opacity:0" offset="1"/></linearGradient></defs><g style="fill:#241c1c;fill-opacity:1;stroke:#241c1c;stroke-opacity:1"><path style="fill:#241c1c;fill-opacity:1;stroke:#241c1c;stroke-width:127.005;stroke-miterlimit:4;stroke-dasharray:none;stroke-opacity:1;opacity:1;fill-rule:nonzero" d="M1162.782 1650.816c-148.983-38.03-571.15-354.654-638.295-398.04-64.008-45.598-298.587-222.209-357.997-335.39-15.229-32.06-20.206-51.862-22.503-89.52-5.19-85.111 33.303-194.023 117.106-331.337 139.85-229.146 254.028-348.194 363.923-379.443 52.457-14.916 129.48-7.799 198.785 18.37 235.72 98.939 421.233 256.125 601.447 365.806 142.457 86.702 273.206 178.999 364.113 266.992 18.666 18.068 37.285 42.84 23.085 67.59-13.643 23.091-79.69-15.82-165.42-65.403-217.012-125.515-214.919-130.628-253.558-126.716-126.213 13.354-206.342 198.095-158.21 290.585 74.304 112.654 236.58 219.43 256.801 347.927 3.07 78.2-31.385 153.846-73.763 218.21-59.464 89.752-167.664 166.2-255.514 150.369zm186.654-313.797c17.316-193.856-234.145-233.713-264.927-402.71-3.59-28.953.417-67.056 10.19-96.91 22.626-69.124 89.328-177.924 155.792-254.117 35.553-38.173-38.608-74.206-88.697-105.858-4.286.635-45.074 57.935-129.581 182.04-67.83 99.611-122.86 182.016-123.363 182.79-49.974 76.692-102.877 151.753-157.35 232.16-29.715 43.877-61.198 85.191-65.337 94.55-22.79 51.523 25.898 65.22 85.994 109.111 249.478 166.908 148.185 94.569 193.052 126.29 50.607 35.778 162.114 107.712 194.672 111.295 103.446 11.384 182.664-101.503 189.554-178.64zM570.01 1079.168c73.501-3.304 82.036-42.096 110.7-84.487 91.765-135.714 188.707-277.099 274.22-403.532 37.538-55.503 123.072-160.505 73.69-203.105-88.641-76.47-192.493-142.783-304.232-159.15-103.537-15.164-197.368 59.379-328.476 259.67-131.47 200.846-162.02 313.816-108.74 402.111 16.652 27.597 34.838 46.177 96.622 105.17 64.389 61.481 108.606 86.81 186.216 83.323z" transform="translate(-79.984 19.339)"/></g></svg>